<svg xmlns="http://www.w3.org/2000/svg" viewBox="0 0 1440 320"><path fill="#c4b0ff" fill-opacity="1" d="M0,224L18.5,234.7C36.9,245,74,267,111,229.3C147.7,192,185,96,222,58.7C258.5,21,295,43,332,48C369.2,53,406,43,443,53.3C480,64,517,96,554,101.3C590.8,107,628,85,665,69.3C701.5,53,738,43,775,85.3C812.3,128,849,224,886,266.7C923.1,309,960,299,997,272C1033.8,245,1071,203,1108,186.7C1144.6,171,1182,181,1218,181.3C1255.4,181,1292,171,1329,192C1366.2,213,1403,267,1422,293.3L1440,320L1440,0L1421.5,0C1403.1,0,1366,0,1329,0C1292.3,0,1255,0,1218,0C1181.5,0,1145,0,1108,0C1070.8,0,1034,0,997,0C960,0,923,0,886,0C849.2,0,812,0,775,0C738.5,0,702,0,665,0C627.7,0,591,0,554,0C516.9,0,480,0,443,0C406.2,0,369,0,332,0C295.4,0,258,0,222,0C184.6,0,148,0,111,0C73.8,0,37,0,18,0L0,0Z"></path></svg>